<svg width="442" height="90" viewBox="0 0 442 90" fill="none" xmlns="http://www.w3.org/2000/svg">
    <g clip-path="url(#clip0_2_27)">
    <path d="M164.5 45.3801C163.797 44.1398 162.81 43.0842 161.62 42.3C160.662 41.664 159.613 41.1752 158.51 40.85V39.68C159.576 39.3167 160.586 38.805 161.51 38.16C162.638 37.3761 163.577 36.3514 164.26 35.16C165.095 33.6012 165.495 31.8467 165.42 30.08V29.43C165.478 27.2646 164.882 25.1319 163.71 23.31C162.519 21.5672 160.858 20.1976 158.92 19.36C156.639 18.3909 154.178 17.9171 151.7 17.97H128.4V25.48H134.35V55.77H128.4V63.28H151.98C154.438 63.3347 156.879 62.85 159.13 61.86C161.099 60.9792 162.775 59.553 163.96 57.75C165.159 55.8203 165.764 53.5808 165.7 51.31V50.6C165.772 48.7842 165.357 46.9823 164.5 45.3801ZM142.91 25.7H150.81C152.386 25.6266 153.939 26.0961 155.21 27.03C155.771 27.4809 156.216 28.0591 156.508 28.7165C156.8 29.374 156.931 30.0918 156.89 30.81V31.46C156.924 32.177 156.785 32.8918 156.486 33.5443C156.187 34.1968 155.736 34.768 155.17 35.21C153.918 36.1539 152.377 36.6345 150.81 36.57H142.91V25.7ZM157.15 50.23C157.193 50.9684 157.059 51.7063 156.76 52.3827C156.461 53.0591 156.005 53.6547 155.43 54.12C154.134 55.0764 152.549 55.5567 150.94 55.48H142.94V44.34H150.94C152.562 44.254 154.164 44.7348 155.47 45.7C156.033 46.1711 156.478 46.7672 156.77 47.4409C157.062 48.1146 157.192 48.8471 157.15 49.58V50.23Z" fill="#1B1C1C"/>
    <path d="M195.6 31.14V47.45C195.762 49.955 195.029 52.4361 193.53 54.45C192.814 55.2836 191.915 55.9416 190.905 56.3733C189.894 56.805 188.798 56.9989 187.7 56.94C186.775 57.0007 185.847 56.8714 184.973 56.5602C184.099 56.2489 183.299 55.7622 182.62 55.13C181.98 54.3851 181.493 53.521 181.187 52.5875C180.882 51.654 180.764 50.6693 180.84 49.69V31.14H172.68V50.3C172.631 52.7247 173.166 55.1256 174.24 57.3C175.217 59.2679 176.733 60.9184 178.61 62.06C180.598 63.2316 182.873 63.8239 185.18 63.77C188.067 63.77 190.223 63.2533 191.65 62.22C192.86 61.4121 193.858 60.3248 194.56 59.05H195.73V63.25H203.73V31.15L195.6 31.14Z" fill="#1B1C1C"/>
    <path d="M212.81 31.14V63.24H220.98V31.14H212.81ZM220.65 18.45C219.618 17.5361 218.288 17.0316 216.91 17.0316C215.532 17.0316 214.201 17.5361 213.17 18.45C212.195 19.4571 211.651 20.8036 211.651 22.205C211.651 23.6064 212.195 24.9529 213.17 25.96C214.201 26.8738 215.532 27.3784 216.91 27.3784C218.288 27.3784 219.618 26.8738 220.65 25.96C221.606 24.9435 222.139 23.6006 222.139 22.205C222.139 20.8094 221.606 19.4664 220.65 18.45Z" fill="#1B1C1C"/>
    <path d="M230.03 17.93V63.24H238.19V17.93H230.03Z" fill="#1B1C1C"/>
    <path d="M271.33 17.93V34.83H270.16C269.678 33.9876 269.044 33.2418 268.29 32.63C267.335 31.8633 266.247 31.2801 265.08 30.91C263.498 30.4185 261.846 30.1889 260.19 30.23C257.617 30.2031 255.087 30.8909 252.882 32.2168C250.677 33.5428 248.883 35.4548 247.7 37.74C246.294 40.5013 245.606 43.5726 245.7 46.67V47.67C245.606 50.7674 246.294 53.8387 247.7 56.6C248.918 58.9313 250.769 60.8721 253.04 62.2C255.212 63.4579 257.68 64.117 260.19 64.11C262.522 64.2528 264.847 63.7365 266.9 62.62C268.266 61.792 269.425 60.6633 270.29 59.32H271.46V63.2H279.46V17.93H271.33ZM271.46 47.51C271.46 50.6233 270.617 52.9867 268.93 54.6C267.214 56.1628 264.976 57.029 262.655 57.029C260.334 57.029 258.096 56.1628 256.38 54.6C254.693 52.98 253.85 50.6166 253.85 47.51V46.87C253.85 43.7634 254.693 41.4 256.38 39.78C258.104 38.2165 260.348 37.3504 262.675 37.3504C265.002 37.3504 267.246 38.2165 268.97 39.78C270.63 41.4 271.46 43.7634 271.46 46.87V47.51Z" fill="#1B1C1C"/>
    <path d="M322.98 34.5001V34.11C322.98 28.81 321.46 24.6367 318.42 21.59C315.38 18.5434 311.073 17.0234 305.5 17.03C299.893 17.03 295.45 18.5934 292.17 21.72C288.89 24.8467 287.25 29.3233 287.25 35.15V46.02C287.25 51.8533 288.89 56.3333 292.17 59.46C295.45 62.5867 299.893 64.15 305.5 64.15C311.073 64.15 315.38 62.63 318.42 59.59C321.46 56.55 322.98 52.3734 322.98 47.06V46.15H314.57V47.32C314.652 49.7102 313.855 52.0476 312.33 53.89C310.84 55.64 308.57 56.51 305.5 56.51C304.18 56.5796 302.861 56.3637 301.632 55.877C300.404 55.3903 299.294 54.6444 298.38 53.6901C296.579 51.6032 295.652 48.9029 295.79 46.15V35.02C295.642 32.2567 296.57 29.5435 298.38 27.45C299.299 26.5037 300.41 25.7651 301.638 25.2839C302.866 24.8026 304.183 24.5899 305.5 24.66C308.57 24.66 310.84 25.5301 312.33 27.2501C313.863 29.0994 314.661 31.4493 314.57 33.85V34.5001H322.98Z" fill="#1B1C1C"/>
    <path d="M360.14 37.8C358.719 35.3887 356.637 33.435 354.14 32.17C351.449 30.893 348.508 30.2304 345.53 30.2304C342.552 30.2304 339.611 30.893 336.92 32.17C334.419 33.4294 332.336 35.3845 330.92 37.8C329.391 40.5005 328.63 43.568 328.72 46.67V47.67C328.63 50.7721 329.391 53.8396 330.92 56.54C332.336 58.9556 334.419 60.9106 336.92 62.17C339.611 63.4471 342.552 64.1096 345.53 64.1096C348.508 64.1096 351.449 63.4471 354.14 62.17C356.637 60.905 358.719 58.9513 360.14 56.54C361.665 53.8379 362.425 50.7716 362.34 47.67V46.67C362.425 43.5685 361.665 40.5022 360.14 37.8ZM354.14 47.51C354.14 50.53 353.32 52.8633 351.68 54.51C349.988 56.073 347.769 56.941 345.465 56.941C343.161 56.941 340.942 56.073 339.25 54.51C337.61 52.89 336.79 50.5566 336.79 47.51V46.87C336.79 43.85 337.61 41.5167 339.25 39.87C340.948 38.3071 343.172 37.4396 345.48 37.4396C347.788 37.4396 350.012 38.3071 351.71 39.87C353.33 41.49 354.14 43.8234 354.14 46.87V47.51Z" fill="#1B1C1C"/>
    <path d="M393.92 17.93V34.83H392.76C392.274 33.9873 391.637 33.2415 390.88 32.63C389.927 31.8661 388.843 31.2831 387.68 30.91C386.098 30.4199 384.446 30.1903 382.79 30.23C380.269 30.2138 377.79 30.8733 375.61 32.14C373.35 33.4723 371.51 35.4127 370.3 37.74C368.894 40.5013 368.206 43.5726 368.3 46.67V47.67C368.206 50.7674 368.894 53.8387 370.3 56.6C371.519 58.9313 373.369 60.8721 375.64 62.2C377.812 63.4592 380.28 64.1184 382.79 64.11C385.119 64.2542 387.442 63.7377 389.49 62.62C390.857 61.789 392.019 60.6611 392.89 59.32H394.05V63.2H402.05V17.93H393.92ZM394.05 47.51C394.05 50.6233 393.21 52.9867 391.53 54.6C389.813 56.1607 387.576 57.0254 385.255 57.0254C382.935 57.0254 380.697 56.1607 378.98 54.6C377.3 52.98 376.46 50.6166 376.46 47.51V46.87C376.46 43.7634 377.3 41.4 378.98 39.78C380.704 38.2165 382.948 37.3504 385.275 37.3504C387.602 37.3504 389.846 38.2165 391.57 39.78C393.23 41.4 394.06 43.7634 394.06 46.87L394.05 47.51Z" fill="#1B1C1C"/>
    <path d="M441.24 46.8C441.304 43.8053 440.638 40.8401 439.3 38.16C438.064 35.7486 436.18 33.7297 433.86 32.33C431.365 30.887 428.521 30.1603 425.64 30.23C422.71 30.1535 419.812 30.8429 417.23 32.23C414.834 33.5631 412.878 35.5645 411.6 37.99C410.21 40.7 409.522 43.7154 409.6 46.76V47.6C409.514 50.6455 410.202 53.6631 411.6 56.37C412.907 58.7947 414.881 60.7937 417.29 62.13C419.887 63.5139 422.798 64.2029 425.74 64.13C428.23 64.2154 430.708 63.7403 432.99 62.74C434.722 61.9368 436.274 60.7903 437.55 59.37C438.56 58.2517 439.442 57.0241 440.18 55.71L433.51 52.22C432.918 53.473 432.082 54.595 431.05 55.52C429.97 56.5067 428.287 57.0033 426 57.01C423.907 57.0636 421.871 56.3243 420.3 54.94C419.536 54.2654 418.923 53.4379 418.499 52.5111C418.075 51.5844 417.851 50.579 417.84 49.56H441.21L441.24 46.8ZM417.98 43.5C418.214 41.7713 419.062 40.1845 420.37 39.03C421.856 37.8472 423.724 37.2496 425.62 37.35C427.481 37.2656 429.308 37.8629 430.76 39.03C431.409 39.5899 431.939 40.2737 432.321 41.0412C432.702 41.8088 432.926 42.6447 432.98 43.5H417.98Z" fill="#1B1C1C"/>
    <path d="M69.06 15.14C70.3861 15.14 71.6579 15.6668 72.5956 16.6045C73.5332 17.5421 74.06 18.8139 74.06 20.14V69.06C74.06 70.3861 73.5332 71.6579 72.5956 72.5956C71.6579 73.5332 70.3861 74.06 69.06 74.06H20.13C18.8039 74.06 17.5322 73.5332 16.5945 72.5956C15.6568 71.6579 15.13 70.3861 15.13 69.06V20.14C15.13 18.8139 15.6568 17.5421 16.5945 16.6045C17.5322 15.6668 18.8039 15.14 20.13 15.14H69.06ZM37.98 61.2H51.19C53.8422 61.2 56.3857 60.1465 58.2611 58.2711C60.1364 56.3957 61.19 53.8521 61.19 51.2V38C61.19 35.3479 60.1364 32.8043 58.2611 30.9289C56.3857 29.0536 53.8422 28 51.19 28H37.98C35.3278 28 32.7843 29.0536 30.9089 30.9289C29.0336 32.8043 27.98 35.3479 27.98 38V51.2C27.98 53.8521 29.0336 56.3957 30.9089 58.2711C32.7843 60.1465 35.3278 61.2 37.98 61.2ZM69.05 10.14H20.13C17.4778 10.14 14.9343 11.1936 13.0589 13.0689C11.1836 14.9443 10.13 17.4878 10.13 20.14V69.06C10.13 71.7122 11.1836 74.2557 13.0589 76.1311C14.9343 78.0064 17.4778 79.06 20.13 79.06H69.06C71.7122 79.06 74.2557 78.0064 76.1311 76.1311C78.0064 74.2557 79.06 71.7122 79.06 69.06V20.14C79.06 17.4878 78.0064 14.9443 76.1311 13.0689C74.2557 11.1936 71.7122 10.14 69.06 10.14H69.05ZM37.98 56.2C36.6539 56.2 35.3822 55.6732 34.4445 54.7356C33.5068 53.7979 32.98 52.5261 32.98 51.2V38C32.98 36.6739 33.5068 35.4021 34.4445 34.4644C35.3822 33.5268 36.6539 33 37.98 33H51.19C52.5161 33 53.7879 33.5268 54.7256 34.4644C55.6632 35.4021 56.19 36.6739 56.19 38V51.2C56.19 52.5261 55.6632 53.7979 54.7256 54.7356C53.7879 55.6732 52.5161 56.2 51.19 56.2H37.98Z" fill="#1B1C1C"/>
    <path d="M86.26 37.53L79.06 30.33L58.88 10.14L51.67 2.92999C50.7413 2.00023 49.6384 1.26264 48.4244 0.759399C47.2104 0.256157 45.9092 -0.00286865 44.595 -0.00286865C43.2808 -0.00286865 41.9796 0.256157 40.7656 0.759399C39.5516 1.26264 38.4488 2.00023 37.52 2.92999L30.31 10.14L10.13 30.33L2.93002 37.53C1.05531 39.4053 0.00213623 41.9484 0.00213623 44.6C0.00213623 47.2516 1.05531 49.7947 2.93002 51.67L10.13 58.87L30.31 79.06L37.52 86.27C38.4488 87.1998 39.5516 87.9373 40.7656 88.4406C41.9796 88.9438 43.2808 89.2029 44.595 89.2029C45.9092 89.2029 47.2104 88.9438 48.4244 88.4406C49.6384 87.9373 50.7413 87.1998 51.67 86.27L58.88 79.06L79.06 58.87L86.26 51.67C88.1347 49.7947 89.1879 47.2516 89.1879 44.6C89.1879 41.9484 88.1347 39.4053 86.26 37.53ZM56.2 38V51.2C56.2 52.5261 55.6732 53.7979 54.7355 54.7356C53.7979 55.6732 52.5261 56.2 51.2 56.2H37.98C36.6539 56.2 35.3822 55.6732 34.4445 54.7356C33.5068 53.7979 32.98 52.5261 32.98 51.2V38C32.98 36.6739 33.5068 35.4021 34.4445 34.4644C35.3822 33.5268 36.6539 33 37.98 33H51.19C51.8475 32.9987 52.4987 33.127 53.1065 33.3777C53.7143 33.6284 54.2667 33.9965 54.732 34.4609C55.1974 34.9253 55.5666 35.477 55.8185 36.0843C56.0703 36.6915 56.2 37.3426 56.2 38Z" fill="#1B1C1C"/>
    </g>
    <defs>
    <clipPath id="clip0_2_27">
    <rect width="441.24" height="89.19" fill="white"/>
    </clipPath>
    </defs>
    </svg>
    